<?xml version="1.0" encoding="UTF-8" standalone="no"?>
<svg
   version="1.1"
   width="500"
   height="499"
   id="svg139"
   sodipodi:docname="com.ak1932.serial_plotter.svg"
   inkscape:version="1.4 (e7c3feb100, 2024-10-09)"
   xmlns:inkscape="http://www.inkscape.org/namespaces/inkscape"
   xmlns:sodipodi="http://sodipodi.sourceforge.net/DTD/sodipodi-0.dtd"
   xmlns="http://www.w3.org/2000/svg"
   xmlns:svg="http://www.w3.org/2000/svg">
  <defs
     id="defs139" />
  <sodipodi:namedview
     id="namedview139"
     pagecolor="#505050"
     bordercolor="#ffffff"
     borderopacity="1"
     inkscape:showpageshadow="0"
     inkscape:pageopacity="0"
     inkscape:pagecheckerboard="1"
     inkscape:deskcolor="#505050"
     inkscape:zoom="1.0440958"
     inkscape:cx="43.099493"
     inkscape:cy="296.90762"
     inkscape:window-width="1920"
     inkscape:window-height="993"
     inkscape:window-x="0"
     inkscape:window-y="0"
     inkscape:window-maximized="1"
     inkscape:current-layer="svg139" />
  <path
     d="M0 0 C165 0 330 0 500 0 C500 164.67 500 329.34 500 499 C335 499 170 499 0 499 C0 334.33 0 169.66 0 0 Z "
     fill="#2E2929"
     transform="translate(0,0)"
     id="path1" />
  <path
     d="M0 0 C0.81491913 -0.00525696 1.62983826 -0.01051392 2.4694519 -0.01593018 C5.16602689 -0.02914542 7.86201265 -0.02038684 10.55859375 -0.01025391 C12.43042108 -0.01227421 14.30224764 -0.01518528 16.17407227 -0.01895142 C20.09822072 -0.02337683 24.0221644 -0.01693673 27.94628906 -0.00292969 C32.98049722 0.01416233 38.01422559 0.0043223 43.04841614 -0.01364708 C46.91397731 -0.02447905 50.77942443 -0.02104128 54.64498901 -0.0132637 C56.50137387 -0.01126007 58.35776902 -0.01372668 60.21414185 -0.02070236 C62.80710344 -0.02830722 65.39928418 -0.01672655 67.9921875 0 C68.76215057 -0.00607269 69.53211365 -0.01214539 70.32540894 -0.0184021 C75.49560193 0.04349785 75.49560193 0.04349785 77.97680664 1.75228882 C79.42432929 4.07547599 79.33963975 5.70852478 78.99609375 8.38818359 C76.53125062 10.85302673 75.16029191 10.62299464 71.79727173 10.63702393 C71.07510468 10.62983337 70.35293762 10.62264282 69.60888672 10.61523438 C68.84781616 10.61552643 68.08674561 10.61581848 67.3026123 10.61611938 C64.78105359 10.6147234 62.2597885 10.59914977 59.73828125 10.58349609 C57.99236208 10.57976691 56.24644081 10.57691949 54.5005188 10.57492065 C49.90059655 10.5672767 45.30080018 10.54762172 40.70092773 10.5255127 C35.18433738 10.50147786 29.66770498 10.49227691 24.15107727 10.48060608 C15.76599516 10.46119772 7.38118936 10.42288054 -1.00390625 10.38818359 C-1.00390625 22.26818359 -1.00390625 34.14818359 -1.00390625 46.38818359 C2.29609375 46.38818359 5.59609375 46.38818359 8.99609375 46.38818359 C8.99609375 47.70818359 8.99609375 49.02818359 8.99609375 50.38818359 C5.69609375 50.38818359 2.39609375 50.38818359 -1.00390625 50.38818359 C-1.00390625 76.45818359 -1.00390625 102.52818359 -1.00390625 129.38818359 C2.29609375 129.38818359 5.59609375 129.38818359 8.99609375 129.38818359 C8.99609375 130.70818359 8.99609375 132.02818359 8.99609375 133.38818359 C8.23683594 133.43716797 7.47757812 133.48615234 6.6953125 133.53662109 C5.20451172 133.64876953 5.20451172 133.64876953 3.68359375 133.76318359 C2.69746094 133.83279297 1.71132813 133.90240234 0.6953125 133.97412109 C-2.21919058 134.22683832 -2.21919058 134.22683832 -5.00390625 136.38818359 C-6.95040417 136.63427925 -6.95040417 136.63427925 -9.19902039 136.62869263 C-10.47995071 136.63281662 -10.47995071 136.63281662 -11.78675842 136.63702393 C-13.18721657 136.6262381 -13.18721657 136.6262381 -14.6159668 136.61523438 C-16.09428986 136.61567245 -16.09428986 136.61567245 -17.60247803 136.61611938 C-20.86528275 136.61472426 -24.12786009 136.59915432 -27.390625 136.58349609 C-29.650781 136.57976662 -31.91093861 136.57691934 -34.1710968 136.57492065 C-40.12399752 136.56727907 -46.07680087 136.547626 -52.02966309 136.5255127 C-59.1698836 136.50147155 -66.31013665 136.49227579 -73.45038605 136.48060608 C-84.3016272 136.46120198 -95.15265464 136.42288292 -106.00390625 136.38818359 C-106.00390625 161.46818359 -106.00390625 186.54818359 -106.00390625 212.38818359 C-105.01390625 212.38818359 -104.02390625 212.38818359 -103.00390625 212.38818359 C-103.00390625 213.37818359 -103.00390625 214.36818359 -103.00390625 215.38818359 C-103.99390625 215.38818359 -104.98390625 215.38818359 -106.00390625 215.38818359 C-106.00390625 241.78818359 -106.00390625 268.18818359 -106.00390625 295.38818359 C-105.01390625 295.38818359 -104.02390625 295.38818359 -103.00390625 295.38818359 C-103.00390625 296.70818359 -103.00390625 298.02818359 -103.00390625 299.38818359 C-103.99390625 299.38818359 -104.98390625 299.38818359 -106.00390625 299.38818359 C-106.00390625 325.12818359 -106.00390625 350.86818359 -106.00390625 377.38818359 C-105.01390625 377.38818359 -104.02390625 377.38818359 -103.00390625 377.38818359 C-103.00390625 378.70818359 -103.00390625 380.02818359 -103.00390625 381.38818359 C-108.95259066 382.91925326 -114.46243021 383.67775075 -120.59716797 383.63110352 C-121.40320969 383.63300186 -122.2092514 383.63490021 -123.03971863 383.63685608 C-125.67111321 383.64052396 -128.30222424 383.62992126 -130.93359375 383.61865234 C-132.77442391 383.61745868 -134.61525468 383.61700778 -136.45608521 383.61726379 C-140.29726014 383.6157061 -144.13834092 383.60746763 -147.97949219 383.59399414 C-152.90577129 383.57693335 -157.8319479 383.57318226 -162.7582531 383.57393932 C-166.55171692 383.57366776 -170.34515829 383.56818998 -174.13861465 383.56093788 C-175.95592199 383.55775513 -177.77323187 383.55578472 -179.59054184 383.55504417 C-182.12274288 383.55288052 -184.6548342 383.54413778 -187.18701172 383.53344727 C-188.31379082 383.53412704 -188.31379082 383.53412704 -189.46333313 383.53482056 C-192.58170676 383.51553127 -195.02217427 383.38209425 -198.00390625 382.38818359 C-200.2296496 382.16366901 -202.45972144 381.98035482 -204.69140625 381.82568359 C-205.87089844 381.74189453 -207.05039063 381.65810547 -208.265625 381.57177734 C-209.16925781 381.51119141 -210.07289063 381.45060547 -211.00390625 381.38818359 C-211.00390625 380.06818359 -211.00390625 378.74818359 -211.00390625 377.38818359 C-207.70390625 377.38818359 -204.40390625 377.38818359 -201.00390625 377.38818359 C-201.00390625 352.63818359 -201.00390625 327.88818359 -201.00390625 302.38818359 C-207.08183594 302.42298828 -213.15976563 302.45779297 -219.421875 302.49365234 C-223.27279607 302.50898129 -227.12367951 302.52342318 -230.97460938 302.53466797 C-237.08674941 302.5526001 -243.1987546 302.57381207 -249.31079102 302.61450195 C-254.23855886 302.64710239 -259.16618209 302.66503813 -264.09404945 302.67281532 C-265.97392363 302.67835758 -267.85378992 302.68918026 -269.73360252 302.70537376 C-272.36709054 302.72715713 -274.99998128 302.73015014 -277.63354492 302.72875977 C-278.79879951 302.74493851 -278.79879951 302.74493851 -279.9875946 302.76144409 C-284.44358195 302.73599462 -287.74215846 302.58206487 -291.00390625 299.38818359 C-291.49240027 296.56595141 -291.63864132 294.34241371 -291.5715332 291.52026367 C-291.57226334 290.72003281 -291.57299347 289.91980194 -291.57374573 289.09532166 C-291.57026062 286.44876447 -291.53135809 283.80396471 -291.4921875 281.15771484 C-291.4828626 279.32355206 -291.47574497 277.48937683 -291.4707489 275.65519714 C-291.45165354 270.82648361 -291.40253105 265.99852151 -291.347229 261.17010498 C-291.29609112 256.24355231 -291.27324655 251.31687827 -291.24804688 246.39013672 C-291.19441464 236.72248877 -291.10907125 227.05539865 -291.00390625 217.38818359 C-292.4409063 217.39484543 -292.4409063 217.39484543 -293.90693665 217.40164185 C-302.92698371 217.44215252 -311.94701237 217.47215095 -320.96712971 217.49180794 C-325.60467121 217.50225344 -330.24213938 217.51642663 -334.87963867 217.5390625 C-339.3535198 217.56076355 -343.82733031 217.57274644 -348.30125999 217.57793808 C-350.00972798 217.58163876 -351.71819203 217.58886511 -353.42663002 217.59964371 C-355.81616246 217.6141223 -358.20540159 217.61616307 -360.5949707 217.61523438 C-361.30419174 217.62242493 -362.01341278 217.62961548 -362.74412537 217.63702393 C-366.39997516 217.62160841 -367.87113192 217.47669982 -371.00390625 215.38818359 C-371.42054057 212.68006055 -371.45069539 211.10070142 -369.97872925 208.75328064 C-366.89603234 206.62236539 -363.64942153 206.96289313 -360.03173828 206.98413086 C-359.22003174 206.97726761 -358.4083252 206.97040436 -357.57202148 206.96333313 C-354.88507661 206.94501168 -352.19871277 206.9489107 -349.51171875 206.95458984 C-347.6446819 206.95003002 -345.77764673 206.94472505 -343.91061401 206.93870544 C-339.99486479 206.92976342 -336.07931939 206.93220918 -332.16357422 206.94213867 C-327.14739919 206.95361943 -322.13192904 206.93343622 -317.11584663 206.90422153 C-313.25877415 206.8858656 -309.40187068 206.88615096 -305.54476547 206.89185905 C-303.69560636 206.8920124 -301.84643588 206.88595719 -299.99731827 206.87356758 C-297.40938543 206.85867374 -294.82275561 206.86932281 -292.23486328 206.88647461 C-291.0907045 206.87197266 -291.0907045 206.87197266 -289.9234314 206.85717773 C-286.3046292 206.90734896 -284.12872973 207.31442013 -280.98947144 209.16954041 C-279.00390625 211.38818359 -279.00390625 211.38818359 -279.00390625 215.38818359 C-279.66390625 215.38818359 -280.32390625 215.38818359 -281.00390625 215.38818359 C-281.00390625 240.79818359 -281.00390625 266.20818359 -281.00390625 292.38818359 C-251.96390625 292.38818359 -222.92390625 292.38818359 -193.00390625 292.38818359 C-192.67390625 293.37818359 -192.34390625 294.36818359 -192.00390625 295.38818359 C-189.03390625 295.38818359 -186.06390625 295.38818359 -183.00390625 295.38818359 C-183.00390625 296.70818359 -183.00390625 298.02818359 -183.00390625 299.38818359 C-185.64390625 299.38818359 -188.28390625 299.38818359 -191.00390625 299.38818359 C-191.00390625 323.80818359 -191.00390625 348.22818359 -191.00390625 373.38818359 C-166.25390625 373.38818359 -141.50390625 373.38818359 -116.00390625 373.38818359 C-116.0196167 366.01240967 -116.03532715 358.63663574 -116.05151367 351.03735352 C-116.09963396 327.45454851 -116.13302089 303.87174638 -116.15710224 280.28890563 C-116.16085449 276.62758084 -116.16473744 272.96625621 -116.16870117 269.30493164 C-116.1694881 268.57600857 -116.17027503 267.84708549 -116.17108581 267.09607384 C-116.18415009 255.2837335 -116.20780954 243.47143684 -116.23536464 231.65912243 C-116.26339044 219.54424772 -116.28007651 207.42939593 -116.28617173 195.31449014 C-116.29029406 187.83515477 -116.30332755 180.35594282 -116.32765565 172.87664542 C-116.3453448 167.14756399 -116.34727903 161.41856215 -116.34322929 155.68945885 C-116.34405763 153.334765 -116.35006453 150.98006666 -116.36152267 148.62540054 C-116.37635756 145.42080226 -116.37289273 142.21674036 -116.3646698 139.01213074 C-116.37340832 138.07147788 -116.38214685 137.13082502 -116.39115018 136.16166753 C-116.38517703 135.30574586 -116.37920389 134.44982419 -116.37304974 133.56796551 C-116.3741889 132.82789058 -116.37532806 132.08781566 -116.37650174 131.32531422 C-115.89719157 128.83337206 -114.97202136 127.94075779 -113.00390625 126.38818359 C-111.04179096 126.01904011 -111.04179096 126.01904011 -108.77082825 126.02742004 C-107.90846054 126.02329605 -107.04609283 126.01917206 -106.15759277 126.0149231 C-105.21460327 126.02570892 -104.27161377 126.03649475 -103.30004883 126.04760742 C-102.30474655 126.04716934 -101.30944427 126.04673126 -100.28398132 126.04627991 C-96.98860167 126.04837276 -93.69372847 126.07172758 -90.3984375 126.09521484 C-88.11586281 126.10080902 -85.83328453 126.10507996 -83.55070496 126.108078 C-77.53856488 126.11954074 -71.5266417 126.1490204 -65.5145874 126.18218994 C-58.30347425 126.21825086 -51.09228863 126.23204515 -43.88111115 126.24954987 C-32.92189192 126.27865668 -21.96314876 126.33613442 -11.00390625 126.38818359 C-11.00390625 101.30818359 -11.00390625 76.22818359 -11.00390625 50.38818359 C-13.64390625 50.38818359 -16.28390625 50.38818359 -19.00390625 50.38818359 C-19.00390625 49.06818359 -19.00390625 47.74818359 -19.00390625 46.38818359 C-16.36390625 46.38818359 -13.72390625 46.38818359 -11.00390625 46.38818359 C-11.0196167 45.10129639 -11.03532715 43.81440918 -11.05151367 42.48852539 C-11.105764 37.71954595 -11.14023855 32.95059385 -11.16870117 28.18139648 C-11.18379896 26.11624568 -11.20427899 24.05112699 -11.23022461 21.98608398 C-11.2665642 19.01977621 -11.28362255 16.05389189 -11.296875 13.08740234 C-11.31235886 12.16231369 -11.32784271 11.23722504 -11.34379578 10.28410339 C-11.34402237 9.42343765 -11.34424896 8.56277191 -11.34448242 7.67602539 C-11.35447517 6.54018257 -11.35447517 6.54018257 -11.3646698 5.38139343 C-11.00390625 3.38818359 -11.00390625 3.38818359 -9.98286438 1.64445496 C-6.85743219 -0.33961479 -3.58683163 -0.02828931 0 0 Z "
     fill="#F8CC59"
     transform="translate(421.00390625,35.61181640625)"
     id="path2" />
  <path
     d="M0 0 C7.59 0 15.18 0 23 0 C23 15.51 23 31.02 23 47 C15.41 47 7.82 47 0 47 C0 31.49 0 15.98 0 0 Z "
     fill="#FCFCFC"
     transform="translate(299,435)"
     id="path3" />
  <path
     d="M0 0 C4.23216382 0.68016919 5.64165427 1.36674415 8.5 4.5625 C9.225054 7.90852108 9.15263005 11.15217381 9.0625 14.5625 C9.07345703 15.46484375 9.08441406 16.3671875 9.09570312 17.296875 C9.02367248 23.78923752 9.02367248 23.78923752 6.74609375 27.15234375 C4.26944498 28.70724846 2.90657887 29.12997702 0 29.125 C-0.7528125 29.14691406 -1.505625 29.16882813 -2.28125 29.19140625 C-5.75003779 28.20817591 -6.70849639 26.65473897 -8.5 23.5625 C-9.08784533 20.54550252 -9.10480881 17.62864451 -9.0625 14.5625 C-9.08634766 13.7684375 -9.11019531 12.974375 -9.13476562 12.15625 C-9.12399615 7.84846101 -8.87961662 6.05862627 -6.18359375 2.53515625 C-3.5 0.5625 -3.5 0.5625 0 0 Z "
     fill="#A5A4A4"
     transform="translate(23.5,399.4375)"
     id="path4" />
  <path
     d="M0 0 C2.9375 1.625 2.9375 1.625 5 4 C5.5 7.0625 5.5 7.0625 5 10 C3.5 11.875 3.5 11.875 2 13 C2.680625 13.680625 3.36125 14.36125 4.0625 15.0625 C6 18 6 18 6 21.625 C5 25 5 25 3.5 26.9375 C-0.33667855 28.56808839 -3.9074357 28.79598498 -8 28 C-11.10507227 25.42506202 -11.86956835 23.91302153 -12.4375 19.9375 C-11.96214706 16.74584457 -11.16345727 15.34374538 -9 13 C-9.66 12.34 -10.32 11.68 -11 11 C-11.67911715 3.86926995 -11.67911715 3.86926995 -9.4375 1 C-6.03878205 -0.39434583 -3.64405552 -0.44751559 0 0 Z "
     fill="#A3A3A3"
     transform="translate(27,67)"
     id="path5" />
  <path
     d="M0 0 C1.32 0 2.64 0 4 0 C2.54955729 4.10958767 0.48889248 7.43258745 -2 11 C-0.9275 11.061875 0.145 11.12375 1.25 11.1875 C5 12 5 12 7.5 14.125 C9.49546009 17.94963184 9.19379979 19.89631321 8 24 C6.5 26.4375 6.5 26.4375 4 28 C0.87115885 28.6096639 -1.87598219 28.65346428 -5 28 C-7.5625 25.9375 -7.5625 25.9375 -9 23 C-9.64427843 16.87935488 -8.02799994 13.25506143 -5.0625 8.125 C-4.68931641 7.44953125 -4.31613281 6.7740625 -3.93164062 6.078125 C-1.23028274 1.23028274 -1.23028274 1.23028274 0 0 Z "
     fill="#A3A3A3"
     transform="translate(24,148)"
     id="path6" />
  <path
     d="M0 0 C2.625 2.0625 2.625 2.0625 4 5 C4 7.31 4 9.62 4 12 C-0.62 12 -5.24 12 -10 12 C-9.34 13.65 -8.68 15.3 -8 17 C-4.16774573 17.08912219 -0.73437848 16.87867729 3 16 C1.125 19.875 1.125 19.875 0 21 C-2.1796875 21.23828125 -2.1796875 21.23828125 -4.875 21.3125 C-5.75929688 21.34988281 -6.64359375 21.38726562 -7.5546875 21.42578125 C-10 21 -10 21 -11.796875 19.421875 C-13.42025633 16.15402946 -13.3979413 13.57369623 -13.375 9.9375 C-13.38273437 8.70902344 -13.39046875 7.48054688 -13.3984375 6.21484375 C-13 3 -13 3 -11.78515625 1.09765625 C-8.17651629 -1.12122303 -4.0536874 -0.69662386 0 0 Z "
     fill="#E7E6E6"
     transform="translate(292,452)"
     id="path7" />
  <path
     d="M0 0 C2.5625 0.3125 2.5625 0.3125 4.203125 1.33203125 C6.33050692 4.43140664 5.95553424 7.69168065 5.875 11.3125 C5.87822266 12.03695313 5.88144531 12.76140625 5.88476562 13.5078125 C5.84635299 17.2932029 5.70719404 19.09545894 3.5625 22.3125 C0.5625 22.625 0.5625 22.625 -2.4375 22.3125 C-4.80318222 19.94681778 -4.69321704 19.46017774 -4.703125 16.25 C-4.70570312 15.45335937 -4.70828125 14.65671875 -4.7109375 13.8359375 C-4.70320313 13.00320313 -4.69546875 12.17046875 -4.6875 11.3125 C-4.69523437 10.47976563 -4.70296875 9.64703125 -4.7109375 8.7890625 C-4.70835938 7.99242187 -4.70578125 7.19578125 -4.703125 6.375 C-4.70086914 5.64410156 -4.69861328 4.91320312 -4.69628906 4.16015625 C-4.26398679 1.07368116 -2.96600265 0.38025675 0 0 Z "
     fill="#342F2F"
     transform="translate(23.4375,402.6875)"
     id="path8" />
  <path
     d="M0 0 C3 1.4375 3 1.4375 5 4 C5.70703831 8.2843155 4.89859096 11.6817625 2.4609375 15.2578125 C0.71537268 17.270783 -1.08334181 19.1502993 -3 21 C-3.99 21.99 -4.98 22.98 -6 24 C-2.37 24.33 1.26 24.66 5 25 C5 25.99 5 26.98 5 28 C-0.61 28 -6.22 28 -12 28 C-10.92890213 22.64451066 -10.52336217 22.10706353 -6.5625 18.875 C-3.82800047 16.61892816 -1.98287632 14.97431449 0 12 C0.25015873 8.41642759 0.25015873 8.41642759 0 5 C-1.06645115 3.70366379 -1.06645115 3.70366379 -3.5625 3.9375 C-4.366875 3.958125 -5.17125 3.97875 -6 4 C-6.66 5.32 -7.32 6.64 -8 8 C-9.32 8 -10.64 8 -12 8 C-11.68306247 5.06832781 -11.36774166 3.41017339 -9.375 1.1875 C-6.01623433 -0.49188284 -3.71022229 -0.45564133 0 0 Z "
     fill="#A4A4A4"
     transform="translate(27,319)"
     id="path9" />
  <path
     d="M0 0 C1.32 0 2.64 0 4 0 C2.71524695 2.63044301 1.34825805 5.1657438 -0.1640625 7.671875 C-0.56367188 8.33574219 -0.96328125 8.99960938 -1.375 9.68359375 C-1.7875 10.36550781 -2.2 11.04742187 -2.625 11.75 C-3.04523437 12.44738281 -3.46546875 13.14476562 -3.8984375 13.86328125 C-4.93095746 15.57632572 -5.96529882 17.28827213 -7 19 C-4.03 19 -1.06 19 2 19 C2 16.69 2 14.38 2 12 C3.32 12 4.64 12 6 12 C6 17.28 6 22.56 6 28 C4.68 28 3.36 28 2 28 C2 26.02 2 24.04 2 22 C-2.29 22 -6.58 22 -11 22 C-10.59349783 15.87058492 -8.63132714 12.08290036 -5.1875 7.0625 C-4.74857422 6.37865234 -4.30964844 5.69480469 -3.85742188 4.99023438 C-2.54296875 3.03515625 -2.54296875 3.03515625 0 0 Z "
     fill="#A2A1A1"
     transform="translate(26,229)"
     id="path10" />
  <path
     d="M0 0 C3.13778532 0.84981686 4.05791758 1.31177049 6 3.8125 C6.34057617 5.80541992 6.34057617 5.80541992 6.29296875 8.04296875 C6.28330078 8.84541016 6.27363281 9.64785156 6.26367188 10.47460938 C6.23853516 11.30798828 6.21339844 12.14136719 6.1875 13 C6.16719727 14.2674707 6.16719727 14.2674707 6.14648438 15.56054688 C6.11115799 17.64480384 6.05735139 19.72873277 6 21.8125 C4.68 21.8125 3.36 21.8125 2 21.8125 C1.67 16.2025 1.34 10.5925 1 4.8125 C-0.98 4.8125 -2.96 4.8125 -5 4.8125 C-7.05922402 6.87172402 -6.41427579 11.02958124 -6.5625 13.875 C-6.60568359 14.63361328 -6.64886719 15.39222656 -6.69335938 16.17382812 C-6.79973633 18.05315438 -6.90039934 19.93280244 -7 21.8125 C-7.99 21.8125 -8.98 21.8125 -10 21.8125 C-10 14.8825 -10 7.9525 -10 0.8125 C-8.68 1.1425 -7.36 1.4725 -6 1.8125 C-3 -0.1875 -3 -0.1875 0 0 Z "
     fill="#E4E3E3"
     transform="translate(220,451.1875)"
     id="path11" />
  <path
     d="M0 0 C2.4375 1.875 2.4375 1.875 4 4 C4 4.99 4 5.98 4 7 C2.68 7 1.36 7 0 7 C-0.66 6.01 -1.32 5.02 -2 4 C-3.98 4 -5.96 4 -8 4 C-8.33 8.29 -8.66 12.58 -9 17 C-5.58357241 17.25015873 -5.58357241 17.25015873 -2 17 C-1.34 16.01 -0.68 15.02 0 14 C1.32 14 2.64 14 4 14 C2.92598892 16.91517292 2.22189824 18.77810176 0 21 C-2.0234375 21.3359375 -2.0234375 21.3359375 -4.375 21.375 C-5.53128906 21.41753906 -5.53128906 21.41753906 -6.7109375 21.4609375 C-9.94994055 20.80871504 -11.0616279 19.65113673 -13 17 C-13.53125 13.90625 -13.53125 13.90625 -13.5 10.5 C-13.51546875 8.81390625 -13.51546875 8.81390625 -13.53125 7.09375 C-12.90004689 3.41792013 -11.88321976 2.28075593 -9 0 C-5.81452856 -1.59273572 -3.39809153 -0.76164121 0 0 Z "
     fill="#E5E5E5"
     transform="translate(269,452)"
     id="path12" />
  <path
     d="M0 0 C5.94 0 11.88 0 18 0 C18 6.6 18 13.2 18 20 C17.34 18.68 16.68 17.36 16 16 C11.88821743 8.61321867 7.77866031 4.61798154 0 1 C0 0.67 0 0.34 0 0 Z "
     fill="#000000"
     transform="translate(482,0)"
     id="path13"
     style="fill:#000000;fill-opacity:0" />
  <path
     d="M0 0 C6.27 0 12.54 0 19 0 C17.02 0.99 17.02 0.99 15 2 C7.45287617 6.71132581 3.91107917 12.17784166 0 20 C0 13.4 0 6.8 0 0 Z "
     fill="#000000"
     transform="translate(0,0)"
     id="path14"
     style="fill:#000000;fill-opacity:0" />
  <path
     d="M0 0 C3.3 0 6.6 0 10 0 C10 5.94 10 11.88 10 18 C11.98 18 13.96 18 16 18 C16 18.99 16 19.98 16 21 C10.39 21 4.78 21 -1 21 C-1 20.01 -1 19.02 -1 18 C1.64 18 4.28 18 7 18 C7 13.05 7 8.1 7 3 C4.69 3 2.38 3 0 3 C0 2.01 0 1.02 0 0 Z "
     fill="#FEFEFE"
     transform="translate(234,452)"
     id="path15" />
  <path
     d="M0 0 C0.33 0 0.66 0 1 0 C1 6.27 1 12.54 1 19 C-4.61 19 -10.22 19 -16 19 C-12 16 -12 16 -9.0625 14.3125 C-4.23229069 10.66519909 -1.23452141 5.94694185 0 0 Z "
     fill="#000000"
     transform="translate(499,480)"
     id="path16"
     style="fill:#000000;fill-opacity:0" />
  <path
     d="M0 0 C0.66 1.32 1.32 2.64 2 4 C5.32022383 9.68038293 8.21016763 13.78342646 14 17 C14.99 17.66 15.98 18.32 17 19 C11.39 19 5.78 19 0 19 C0 12.73 0 6.46 0 0 Z "
     fill="#000000"
     transform="translate(0,480)"
     id="path17"
     style="fill:#000000;fill-opacity:0" />
  <path
     d="M0 0 C4.14298667 0.59834725 7.18194377 2.00664285 10.8125 4.0625 C11.78832031 4.61035156 12.76414063 5.15820312 13.76953125 5.72265625 C14.50558594 6.14417969 15.24164063 6.56570313 16 7 C16 8.65 16 10.3 16 12 C13.71070947 13.17154293 11.41881638 14.33738074 9.125 15.5 C8.47402344 15.83386719 7.82304687 16.16773438 7.15234375 16.51171875 C2.2265625 19 2.2265625 19 0 19 C0.15234375 17.203125 0.15234375 17.203125 1 15 C4.4950004 12.62274544 8.21785747 10.91280771 12 9 C8.04 7.02 4.08 5.04 0 3 C0 2.01 0 1.02 0 0 Z "
     fill="#EEEDED"
     transform="translate(181,451)"
     id="path18" />
  <path
     d="M0 0 C2.4375 0.75 2.4375 0.75 4.4375 2.75 C3.86057692 9.32692308 3.86057692 9.32692308 2.4375 10.75 C-0.5 10.9375 -0.5 10.9375 -3.5625 10.75 C-5.5625 8.75 -5.5625 8.75 -5.875 5.25 C-5.771875 4.095 -5.66875 2.94 -5.5625 1.75 C-2.5625 -0.25 -2.5625 -0.25 0 0 Z "
     fill="#322D2D"
     transform="translate(24.5625,162.25)"
     id="path19" />
  <path
     d="M0 0 C6.57692308 0.57692308 6.57692308 0.57692308 8 2 C8.1875 4.9375 8.1875 4.9375 8 8 C6 10 6 10 3 10.25 C0 10 0 10 -2 8 C-2.25 5 -2.25 5 -2 2 C-1.34 1.34 -0.68 0.68 0 0 Z "
     fill="#312C2C"
     transform="translate(21,82)"
     id="path20" />
  <path
     d="M0 0 C2.5 0.25 2.5 0.25 4.5 2.25 C4.75 4.75 4.75 4.75 4.5 7.25 C2.5 9.25 2.5 9.25 0 9.5 C-2.5 9.25 -2.5 9.25 -4.5 7.25 C-4.75 4.75 -4.75 4.75 -4.5 2.25 C-2.5 0.25 -2.5 0.25 0 0 Z "
     fill="#332E2E"
     transform="translate(23.5,69.75)"
     id="path21" />
  <path
     d="M0 0 C0.66 0.33 1.32 0.66 2 1 C0.35 2.98 -1.3 4.96 -3 7 C1.62 7 6.24 7 11 7 C11 7.99 11 8.98 11 10 C5.39 10 -0.22 10 -6 10 C-4.92402815 4.62014075 -3.91685634 3.51512748 0 0 Z "
     fill="#ACACAC"
     transform="translate(21,337)"
     id="path22" />
  <path
     d="M0 0 C0.99 0 1.98 0 3 0 C4.19600901 4.49167828 3.9185704 8.73269793 3.5625 13.3125 C3.51029297 14.05306641 3.45808594 14.79363281 3.40429688 15.55664062 C3.27549848 17.37152709 3.13856738 19.18583325 3 21 C2.01 21 1.02 21 0 21 C0 14.07 0 7.14 0 0 Z "
     fill="#FDFDFD"
     transform="translate(210,452)"
     id="path23" />
  <path
     d="M0 0 C3.96 0 7.92 0 12 0 C12 1.65 12 3.3 12 5 C8.04 5 4.08 5 0 5 C0 3.35 0 1.7 0 0 Z "
     fill="#959494"
     transform="translate(386,413)"
     id="path24" />
  <path
     d="M0 0 C3.96 0 7.92 0 12 0 C12 1.65 12 3.3 12 5 C8.04 5 4.08 5 0 5 C0 3.35 0 1.7 0 0 Z "
     fill="#959494"
     transform="translate(370,413)"
     id="path25" />
  <path
     d="M0 0 C3.96 0 7.92 0 12 0 C12 1.65 12 3.3 12 5 C8.04 5 4.08 5 0 5 C0 3.35 0 1.7 0 0 Z "
     fill="#959494"
     transform="translate(354,413)"
     id="path26" />
  <path
     d="M0 0 C3.96 0 7.92 0 12 0 C12 1.65 12 3.3 12 5 C8.04 5 4.08 5 0 5 C0 3.35 0 1.7 0 0 Z "
     fill="#959494"
     transform="translate(146,412)"
     id="path27" />
  <path
     d="M0 0 C3.96 0 7.92 0 12 0 C12 1.65 12 3.3 12 5 C8.04 5 4.08 5 0 5 C0 3.35 0 1.7 0 0 Z "
     fill="#959494"
     transform="translate(130,412)"
     id="path28" />
  <path
     d="M0 0 C3.96 0 7.92 0 12 0 C12 1.65 12 3.3 12 5 C8.04 5 4.08 5 0 5 C0 3.35 0 1.7 0 0 Z "
     fill="#959494"
     transform="translate(114,412)"
     id="path29" />
  <path
     d="M0 0 C3.96 0 7.92 0 12 0 C12 1.65 12 3.3 12 5 C8.04 5 4.08 5 0 5 C0 3.35 0 1.7 0 0 Z "
     fill="#959494"
     transform="translate(434,247)"
     id="path30" />
  <path
     d="M0 0 C3.96 0 7.92 0 12 0 C12 1.65 12 3.3 12 5 C8.04 5 4.08 5 0 5 C0 3.35 0 1.7 0 0 Z "
     fill="#959494"
     transform="translate(418,247)"
     id="path31" />
  <path
     d="M0 0 C3.96 0 7.92 0 12 0 C12 1.65 12 3.3 12 5 C8.04 5 4.08 5 0 5 C0 3.35 0 1.7 0 0 Z "
     fill="#959494"
     transform="translate(402,247)"
     id="path32" />
  <path
     d="M0 0 C3.96 0 7.92 0 12 0 C12 1.65 12 3.3 12 5 C8.04 5 4.08 5 0 5 C0 3.35 0 1.7 0 0 Z "
     fill="#959494"
     transform="translate(386,247)"
     id="path33" />
  <path
     d="M0 0 C3.96 0 7.92 0 12 0 C12 1.65 12 3.3 12 5 C8.04 5 4.08 5 0 5 C0 3.35 0 1.7 0 0 Z "
     fill="#959494"
     transform="translate(370,247)"
     id="path34" />
  <path
     d="M0 0 C3.96 0 7.92 0 12 0 C12 1.65 12 3.3 12 5 C8.04 5 4.08 5 0 5 C0 3.35 0 1.7 0 0 Z "
     fill="#959494"
     transform="translate(354,247)"
     id="path35" />
  <path
     d="M0 0 C3.96 0 7.92 0 12 0 C12 1.65 12 3.3 12 5 C8.04 5 4.08 5 0 5 C0 3.35 0 1.7 0 0 Z "
     fill="#959494"
     transform="translate(338,247)"
     id="path36" />
  <path
     d="M0 0 C3.96 0 7.92 0 12 0 C12 1.65 12 3.3 12 5 C8.04 5 4.08 5 0 5 C0 3.35 0 1.7 0 0 Z "
     fill="#959494"
     transform="translate(322,247)"
     id="path37" />
  <path
     d="M0 0 C3.96 0 7.92 0 12 0 C12 1.32 12 2.64 12 4 C8.04 4 4.08 4 0 4 C0 2.68 0 1.36 0 0 Z "
     fill="#AFAFAF"
     transform="translate(482,414)"
     id="path38" />
  <path
     d="M0 0 C3.96 0 7.92 0 12 0 C12 1.32 12 2.64 12 4 C8.04 4 4.08 4 0 4 C0 2.68 0 1.36 0 0 Z "
     fill="#AAAAAA"
     transform="translate(466,414)"
     id="path39" />
  <path
     d="M0 0 C3.96 0 7.92 0 12 0 C12 1.32 12 2.64 12 4 C8.04 4 4.08 4 0 4 C0 2.68 0 1.36 0 0 Z "
     fill="#A7A6A6"
     transform="translate(450,414)"
     id="path40" />
  <path
     d="M0 0 C3.96 0 7.92 0 12 0 C12 1.32 12 2.64 12 4 C8.04 4 4.08 4 0 4 C0 2.68 0 1.36 0 0 Z "
     fill="#A7A6A6"
     transform="translate(434,414)"
     id="path41" />
  <path
     d="M0 0 C3.96 0 7.92 0 12 0 C12 1.32 12 2.64 12 4 C8.04 4 4.08 4 0 4 C0 2.68 0 1.36 0 0 Z "
     fill="#A7A6A6"
     transform="translate(418,414)"
     id="path42" />
  <path
     d="M0 0 C3.96 0 7.92 0 12 0 C12 1.32 12 2.64 12 4 C8.04 4 4.08 4 0 4 C0 2.68 0 1.36 0 0 Z "
     fill="#A3A2A2"
     transform="translate(402,414)"
     id="path43" />
  <path
     d="M0 0 C3.96 0 7.92 0 12 0 C12 1.32 12 2.64 12 4 C8.04 4 4.08 4 0 4 C0 2.68 0 1.36 0 0 Z "
     fill="#A3A2A2"
     transform="translate(338,413)"
     id="path44" />
  <path
     d="M0 0 C3.96 0 7.92 0 12 0 C12 1.32 12 2.64 12 4 C8.04 4 4.08 4 0 4 C0 2.68 0 1.36 0 0 Z "
     fill="#A7A6A6"
     transform="translate(322,413)"
     id="path45" />
  <path
     d="M0 0 C3.96 0 7.92 0 12 0 C12 1.32 12 2.64 12 4 C8.04 4 4.08 4 0 4 C0 2.68 0 1.36 0 0 Z "
     fill="#A7A6A6"
     transform="translate(194,413)"
     id="path46" />
  <path
     d="M0 0 C3.96 0 7.92 0 12 0 C12 1.32 12 2.64 12 4 C8.04 4 4.08 4 0 4 C0 2.68 0 1.36 0 0 Z "
     fill="#A7A6A6"
     transform="translate(178,413)"
     id="path47" />
  <path
     d="M0 0 C3.96 0 7.92 0 12 0 C12 1.32 12 2.64 12 4 C8.04 4 4.08 4 0 4 C0 2.68 0 1.36 0 0 Z "
     fill="#A3A2A2"
     transform="translate(162,413)"
     id="path48" />
  <path
     d="M0 0 C3.96 0 7.92 0 12 0 C12 1.32 12 2.64 12 4 C8.04 4 4.08 4 0 4 C0 2.68 0 1.36 0 0 Z "
     fill="#A3A2A2"
     transform="translate(98,412)"
     id="path49" />
  <path
     d="M0 0 C3.96 0 7.92 0 12 0 C12 1.32 12 2.64 12 4 C8.04 4 4.08 4 0 4 C0 2.68 0 1.36 0 0 Z "
     fill="#A7A6A6"
     transform="translate(82,412)"
     id="path50" />
  <path
     d="M0 0 C3.96 0 7.92 0 12 0 C12 1.32 12 2.64 12 4 C8.04 4 4.08 4 0 4 C0 2.68 0 1.36 0 0 Z "
     fill="#A7A6A6"
     transform="translate(66,412)"
     id="path51" />
  <path
     d="M0 0 C3.96 0 7.92 0 12 0 C12 1.32 12 2.64 12 4 C8.04 4 4.08 4 0 4 C0 2.68 0 1.36 0 0 Z "
     fill="#A7A6A6"
     transform="translate(50,412)"
     id="path52" />
  <path
     d="M0 0 C3.96 0 7.92 0 12 0 C12 1.32 12 2.64 12 4 C8.04 4 4.08 4 0 4 C0 2.68 0 1.36 0 0 Z "
     fill="#AFAFAF"
     transform="translate(482,331)"
     id="path53" />
  <path
     d="M0 0 C3.96 0 7.92 0 12 0 C12 1.32 12 2.64 12 4 C8.04 4 4.08 4 0 4 C0 2.68 0 1.36 0 0 Z "
     fill="#AFAFAF"
     transform="translate(466,331)"
     id="path54" />
  <path
     d="M0 0 C3.96 0 7.92 0 12 0 C12 1.32 12 2.64 12 4 C8.04 4 4.08 4 0 4 C0 2.68 0 1.36 0 0 Z "
     fill="#AFAFAF"
     transform="translate(450,331)"
     id="path55" />
  <path
     d="M0 0 C3.96 0 7.92 0 12 0 C12 1.32 12 2.64 12 4 C8.04 4 4.08 4 0 4 C0 2.68 0 1.36 0 0 Z "
     fill="#AFAFAF"
     transform="translate(434,331)"
     id="path56" />
  <path
     d="M0 0 C3.96 0 7.92 0 12 0 C12 1.32 12 2.64 12 4 C8.04 4 4.08 4 0 4 C0 2.68 0 1.36 0 0 Z "
     fill="#AFAFAF"
     transform="translate(418,331)"
     id="path57" />
  <path
     d="M0 0 C3.96 0 7.92 0 12 0 C12 1.32 12 2.64 12 4 C8.04 4 4.08 4 0 4 C0 2.68 0 1.36 0 0 Z "
     fill="#AFAFAF"
     transform="translate(402,331)"
     id="path58" />
  <path
     d="M0 0 C3.96 0 7.92 0 12 0 C12 1.32 12 2.64 12 4 C8.04 4 4.08 4 0 4 C0 2.68 0 1.36 0 0 Z "
     fill="#AFAFAF"
     transform="translate(386,331)"
     id="path59" />
  <path
     d="M0 0 C3.96 0 7.92 0 12 0 C12 1.32 12 2.64 12 4 C8.04 4 4.08 4 0 4 C0 2.68 0 1.36 0 0 Z "
     fill="#AFAFAF"
     transform="translate(370,331)"
     id="path60" />
  <path
     d="M0 0 C3.96 0 7.92 0 12 0 C12 1.32 12 2.64 12 4 C8.04 4 4.08 4 0 4 C0 2.68 0 1.36 0 0 Z "
     fill="#AFAFAF"
     transform="translate(354,331)"
     id="path61" />
  <path
     d="M0 0 C3.96 0 7.92 0 12 0 C12 1.32 12 2.64 12 4 C8.04 4 4.08 4 0 4 C0 2.68 0 1.36 0 0 Z "
     fill="#AFAFAF"
     transform="translate(338,331)"
     id="path62" />
  <path
     d="M0 0 C3.96 0 7.92 0 12 0 C12 1.32 12 2.64 12 4 C8.04 4 4.08 4 0 4 C0 2.68 0 1.36 0 0 Z "
     fill="#AFAFAF"
     transform="translate(322,331)"
     id="path63" />
  <path
     d="M0 0 C3.96 0 7.92 0 12 0 C12 1.32 12 2.64 12 4 C8.04 4 4.08 4 0 4 C0 2.68 0 1.36 0 0 Z "
     fill="#AFAFAF"
     transform="translate(290,331)"
     id="path64" />
  <path
     d="M0 0 C3.96 0 7.92 0 12 0 C12 1.32 12 2.64 12 4 C8.04 4 4.08 4 0 4 C0 2.68 0 1.36 0 0 Z "
     fill="#AFAFAF"
     transform="translate(274,331)"
     id="path65" />
  <path
     d="M0 0 C3.96 0 7.92 0 12 0 C12 1.32 12 2.64 12 4 C8.04 4 4.08 4 0 4 C0 2.68 0 1.36 0 0 Z "
     fill="#AFAFAF"
     transform="translate(258,331)"
     id="path66" />
  <path
     d="M0 0 C3.96 0 7.92 0 12 0 C12 1.32 12 2.64 12 4 C8.04 4 4.08 4 0 4 C0 2.68 0 1.36 0 0 Z "
     fill="#AFAFAF"
     transform="translate(242,331)"
     id="path67" />
  <path
     d="M0 0 C3.96 0 7.92 0 12 0 C12 1.32 12 2.64 12 4 C8.04 4 4.08 4 0 4 C0 2.68 0 1.36 0 0 Z "
     fill="#AFAFAF"
     transform="translate(114,331)"
     id="path68" />
  <path
     d="M0 0 C3.96 0 7.92 0 12 0 C12 1.32 12 2.64 12 4 C8.04 4 4.08 4 0 4 C0 2.68 0 1.36 0 0 Z "
     fill="#AFAFAF"
     transform="translate(98,331)"
     id="path69" />
  <path
     d="M0 0 C3.96 0 7.92 0 12 0 C12 1.32 12 2.64 12 4 C8.04 4 4.08 4 0 4 C0 2.68 0 1.36 0 0 Z "
     fill="#AFAFAF"
     transform="translate(82,331)"
     id="path70" />
  <path
     d="M0 0 C3.96 0 7.92 0 12 0 C12 1.32 12 2.64 12 4 C8.04 4 4.08 4 0 4 C0 2.68 0 1.36 0 0 Z "
     fill="#AFAFAF"
     transform="translate(66,331)"
     id="path71" />
  <path
     d="M0 0 C3.96 0 7.92 0 12 0 C12 1.32 12 2.64 12 4 C8.04 4 4.08 4 0 4 C0 2.68 0 1.36 0 0 Z "
     fill="#AFAFAF"
     transform="translate(50,331)"
     id="path72" />
  <path
     d="M0 0 C3.96 0 7.92 0 12 0 C12 1.32 12 2.64 12 4 C8.04 4 4.08 4 0 4 C0 2.68 0 1.36 0 0 Z "
     fill="#A7A6A6"
     transform="translate(482,248)"
     id="path73" />
  <path
     d="M0 0 C3.96 0 7.92 0 12 0 C12 1.32 12 2.64 12 4 C8.04 4 4.08 4 0 4 C0 2.68 0 1.36 0 0 Z "
     fill="#A7A6A6"
     transform="translate(466,248)"
     id="path74" />
  <path
     d="M0 0 C3.96 0 7.92 0 12 0 C12 1.32 12 2.64 12 4 C8.04 4 4.08 4 0 4 C0 2.68 0 1.36 0 0 Z "
     fill="#A3A2A2"
     transform="translate(450,248)"
     id="path75" />
  <path
     d="M0 0 C3.96 0 7.92 0 12 0 C12 1.32 12 2.64 12 4 C8.04 4 4.08 4 0 4 C0 2.68 0 1.36 0 0 Z "
     fill="#A3A2A2"
     transform="translate(290,247)"
     id="path76" />
  <path
     d="M0 0 C3.96 0 7.92 0 12 0 C12 1.32 12 2.64 12 4 C8.04 4 4.08 4 0 4 C0 2.68 0 1.36 0 0 Z "
     fill="#A7A6A6"
     transform="translate(274,247)"
     id="path77" />
  <path
     d="M0 0 C3.96 0 7.92 0 12 0 C12 1.32 12 2.64 12 4 C8.04 4 4.08 4 0 4 C0 2.68 0 1.36 0 0 Z "
     fill="#A7A6A6"
     transform="translate(258,247)"
     id="path78" />
  <path
     d="M0 0 C3.96 0 7.92 0 12 0 C12 1.32 12 2.64 12 4 C8.04 4 4.08 4 0 4 C0 2.68 0 1.36 0 0 Z "
     fill="#A7A6A6"
     transform="translate(242,247)"
     id="path79" />
  <path
     d="M0 0 C3.96 0 7.92 0 12 0 C12 1.32 12 2.64 12 4 C8.04 4 4.08 4 0 4 C0 2.68 0 1.36 0 0 Z "
     fill="#A7A6A6"
     transform="translate(226,247)"
     id="path80" />
  <path
     d="M0 0 C3.96 0 7.92 0 12 0 C12 1.32 12 2.64 12 4 C8.04 4 4.08 4 0 4 C0 2.68 0 1.36 0 0 Z "
     fill="#A7A6A6"
     transform="translate(210,247)"
     id="path81" />
  <path
     d="M0 0 C3.96 0 7.92 0 12 0 C12 1.32 12 2.64 12 4 C8.04 4 4.08 4 0 4 C0 2.68 0 1.36 0 0 Z "
     fill="#A7A6A6"
     transform="translate(194,247)"
     id="path82" />
  <path
     d="M0 0 C3.96 0 7.92 0 12 0 C12 1.32 12 2.64 12 4 C8.04 4 4.08 4 0 4 C0 2.68 0 1.36 0 0 Z "
     fill="#A7A6A6"
     transform="translate(178,247)"
     id="path83" />
  <path
     d="M0 0 C3.96 0 7.92 0 12 0 C12 1.32 12 2.64 12 4 C8.04 4 4.08 4 0 4 C0 2.68 0 1.36 0 0 Z "
     fill="#A7A6A6"
     transform="translate(162,247)"
     id="path84" />
  <path
     d="M0 0 C3.96 0 7.92 0 12 0 C12 1.32 12 2.64 12 4 C8.04 4 4.08 4 0 4 C0 2.68 0 1.36 0 0 Z "
     fill="#A7A6A6"
     transform="translate(146,247)"
     id="path85" />
  <path
     d="M0 0 C3.96 0 7.92 0 12 0 C12 1.32 12 2.64 12 4 C8.04 4 4.08 4 0 4 C0 2.68 0 1.36 0 0 Z "
     fill="#A5A5A5"
     transform="translate(482,165)"
     id="path86" />
  <path
     d="M0 0 C3.96 0 7.92 0 12 0 C12 1.32 12 2.64 12 4 C8.04 4 4.08 4 0 4 C0 2.68 0 1.36 0 0 Z "
     fill="#A5A5A5"
     transform="translate(466,165)"
     id="path87" />
  <path
     d="M0 0 C3.96 0 7.92 0 12 0 C12 1.32 12 2.64 12 4 C8.04 4 4.08 4 0 4 C0 2.68 0 1.36 0 0 Z "
     fill="#A5A5A5"
     transform="translate(450,165)"
     id="path88" />
  <path
     d="M0 0 C3.96 0 7.92 0 12 0 C12 1.32 12 2.64 12 4 C8.04 4 4.08 4 0 4 C0 2.68 0 1.36 0 0 Z "
     fill="#A5A5A5"
     transform="translate(434,165)"
     id="path89" />
  <path
     d="M0 0 C3.96 0 7.92 0 12 0 C12 1.32 12 2.64 12 4 C8.04 4 4.08 4 0 4 C0 2.68 0 1.36 0 0 Z "
     fill="#A5A5A5"
     transform="translate(290,165)"
     id="path90" />
  <path
     d="M0 0 C3.96 0 7.92 0 12 0 C12 1.32 12 2.64 12 4 C8.04 4 4.08 4 0 4 C0 2.68 0 1.36 0 0 Z "
     fill="#A5A5A5"
     transform="translate(274,165)"
     id="path91" />
  <path
     d="M0 0 C3.96 0 7.92 0 12 0 C12 1.32 12 2.64 12 4 C8.04 4 4.08 4 0 4 C0 2.68 0 1.36 0 0 Z "
     fill="#A5A5A5"
     transform="translate(258,165)"
     id="path92" />
  <path
     d="M0 0 C3.96 0 7.92 0 12 0 C12 1.32 12 2.64 12 4 C8.04 4 4.08 4 0 4 C0 2.68 0 1.36 0 0 Z "
     fill="#A5A5A5"
     transform="translate(242,165)"
     id="path93" />
  <path
     d="M0 0 C3.96 0 7.92 0 12 0 C12 1.32 12 2.64 12 4 C8.04 4 4.08 4 0 4 C0 2.68 0 1.36 0 0 Z "
     fill="#A5A5A5"
     transform="translate(226,165)"
     id="path94" />
  <path
     d="M0 0 C3.96 0 7.92 0 12 0 C12 1.32 12 2.64 12 4 C8.04 4 4.08 4 0 4 C0 2.68 0 1.36 0 0 Z "
     fill="#A5A5A5"
     transform="translate(210,165)"
     id="path95" />
  <path
     d="M0 0 C3.96 0 7.92 0 12 0 C12 1.32 12 2.64 12 4 C8.04 4 4.08 4 0 4 C0 2.68 0 1.36 0 0 Z "
     fill="#A5A5A5"
     transform="translate(194,165)"
     id="path96" />
  <path
     d="M0 0 C3.96 0 7.92 0 12 0 C12 1.32 12 2.64 12 4 C8.04 4 4.08 4 0 4 C0 2.68 0 1.36 0 0 Z "
     fill="#A5A5A5"
     transform="translate(178,165)"
     id="path97" />
  <path
     d="M0 0 C3.96 0 7.92 0 12 0 C12 1.32 12 2.64 12 4 C8.04 4 4.08 4 0 4 C0 2.68 0 1.36 0 0 Z "
     fill="#A5A5A5"
     transform="translate(162,165)"
     id="path98" />
  <path
     d="M0 0 C3.96 0 7.92 0 12 0 C12 1.32 12 2.64 12 4 C8.04 4 4.08 4 0 4 C0 2.68 0 1.36 0 0 Z "
     fill="#A5A5A5"
     transform="translate(146,165)"
     id="path99" />
  <path
     d="M0 0 C3.96 0 7.92 0 12 0 C12 1.32 12 2.64 12 4 C8.04 4 4.08 4 0 4 C0 2.68 0 1.36 0 0 Z "
     fill="#A5A5A5"
     transform="translate(130,165)"
     id="path100" />
  <path
     d="M0 0 C3.96 0 7.92 0 12 0 C12 1.32 12 2.64 12 4 C8.04 4 4.08 4 0 4 C0 2.68 0 1.36 0 0 Z "
     fill="#A5A5A5"
     transform="translate(114,165)"
     id="path101" />
  <path
     d="M0 0 C3.96 0 7.92 0 12 0 C12 1.32 12 2.64 12 4 C8.04 4 4.08 4 0 4 C0 2.68 0 1.36 0 0 Z "
     fill="#A5A5A5"
     transform="translate(98,165)"
     id="path102" />
  <path
     d="M0 0 C3.96 0 7.92 0 12 0 C12 1.32 12 2.64 12 4 C8.04 4 4.08 4 0 4 C0 2.68 0 1.36 0 0 Z "
     fill="#A5A5A5"
     transform="translate(82,165)"
     id="path103" />
  <path
     d="M0 0 C3.96 0 7.92 0 12 0 C12 1.32 12 2.64 12 4 C8.04 4 4.08 4 0 4 C0 2.68 0 1.36 0 0 Z "
     fill="#A5A5A5"
     transform="translate(66,165)"
     id="path104" />
  <path
     d="M0 0 C3.96 0 7.92 0 12 0 C12 1.32 12 2.64 12 4 C8.04 4 4.08 4 0 4 C0 2.68 0 1.36 0 0 Z "
     fill="#A5A5A5"
     transform="translate(50,165)"
     id="path105" />
  <path
     d="M0 0 C3.96 0 7.92 0 12 0 C12 1.32 12 2.64 12 4 C8.04 4 4.08 4 0 4 C0 2.68 0 1.36 0 0 Z "
     fill="#A5A5A5"
     transform="translate(482,82)"
     id="path106" />
  <path
     d="M0 0 C3.96 0 7.92 0 12 0 C12 1.32 12 2.64 12 4 C8.04 4 4.08 4 0 4 C0 2.68 0 1.36 0 0 Z "
     fill="#A5A5A5"
     transform="translate(466,82)"
     id="path107" />
  <path
     d="M0 0 C3.96 0 7.92 0 12 0 C12 1.32 12 2.64 12 4 C8.04 4 4.08 4 0 4 C0 2.68 0 1.36 0 0 Z "
     fill="#A5A5A5"
     transform="translate(450,82)"
     id="path108" />
  <path
     d="M0 0 C3.96 0 7.92 0 12 0 C12 1.32 12 2.64 12 4 C8.04 4 4.08 4 0 4 C0 2.68 0 1.36 0 0 Z "
     fill="#A5A5A5"
     transform="translate(434,82)"
     id="path109" />
  <path
     d="M0 0 C3.96 0 7.92 0 12 0 C12 1.32 12 2.64 12 4 C8.04 4 4.08 4 0 4 C0 2.68 0 1.36 0 0 Z "
     fill="#A5A5A5"
     transform="translate(386,82)"
     id="path110" />
  <path
     d="M0 0 C3.96 0 7.92 0 12 0 C12 1.32 12 2.64 12 4 C8.04 4 4.08 4 0 4 C0 2.68 0 1.36 0 0 Z "
     fill="#A5A5A5"
     transform="translate(370,82)"
     id="path111" />
  <path
     d="M0 0 C3.96 0 7.92 0 12 0 C12 1.32 12 2.64 12 4 C8.04 4 4.08 4 0 4 C0 2.68 0 1.36 0 0 Z "
     fill="#A5A5A5"
     transform="translate(354,82)"
     id="path112" />
  <path
     d="M0 0 C3.96 0 7.92 0 12 0 C12 1.32 12 2.64 12 4 C8.04 4 4.08 4 0 4 C0 2.68 0 1.36 0 0 Z "
     fill="#A5A5A5"
     transform="translate(338,82)"
     id="path113" />
  <path
     d="M0 0 C3.96 0 7.92 0 12 0 C12 1.32 12 2.64 12 4 C8.04 4 4.08 4 0 4 C0 2.68 0 1.36 0 0 Z "
     fill="#A5A5A5"
     transform="translate(322,82)"
     id="path114" />
  <path
     d="M0 0 C3.96 0 7.92 0 12 0 C12 1.32 12 2.64 12 4 C8.04 4 4.08 4 0 4 C0 2.68 0 1.36 0 0 Z "
     fill="#A5A5A5"
     transform="translate(306,82)"
     id="path115" />
  <path
     d="M0 0 C3.96 0 7.92 0 12 0 C12 1.32 12 2.64 12 4 C8.04 4 4.08 4 0 4 C0 2.68 0 1.36 0 0 Z "
     fill="#A5A5A5"
     transform="translate(290,82)"
     id="path116" />
  <path
     d="M0 0 C3.96 0 7.92 0 12 0 C12 1.32 12 2.64 12 4 C8.04 4 4.08 4 0 4 C0 2.68 0 1.36 0 0 Z "
     fill="#A5A5A5"
     transform="translate(274,82)"
     id="path117" />
  <path
     d="M0 0 C3.96 0 7.92 0 12 0 C12 1.32 12 2.64 12 4 C8.04 4 4.08 4 0 4 C0 2.68 0 1.36 0 0 Z "
     fill="#A5A5A5"
     transform="translate(258,82)"
     id="path118" />
  <path
     d="M0 0 C3.96 0 7.92 0 12 0 C12 1.32 12 2.64 12 4 C8.04 4 4.08 4 0 4 C0 2.68 0 1.36 0 0 Z "
     fill="#A5A5A5"
     transform="translate(242,82)"
     id="path119" />
  <path
     d="M0 0 C3.96 0 7.92 0 12 0 C12 1.32 12 2.64 12 4 C8.04 4 4.08 4 0 4 C0 2.68 0 1.36 0 0 Z "
     fill="#A5A5A5"
     transform="translate(226,82)"
     id="path120" />
  <path
     d="M0 0 C3.96 0 7.92 0 12 0 C12 1.32 12 2.64 12 4 C8.04 4 4.08 4 0 4 C0 2.68 0 1.36 0 0 Z "
     fill="#A5A5A5"
     transform="translate(210,82)"
     id="path121" />
  <path
     d="M0 0 C3.96 0 7.92 0 12 0 C12 1.32 12 2.64 12 4 C8.04 4 4.08 4 0 4 C0 2.68 0 1.36 0 0 Z "
     fill="#A5A5A5"
     transform="translate(194,82)"
     id="path122" />
  <path
     d="M0 0 C3.96 0 7.92 0 12 0 C12 1.32 12 2.64 12 4 C8.04 4 4.08 4 0 4 C0 2.68 0 1.36 0 0 Z "
     fill="#A5A5A5"
     transform="translate(178,82)"
     id="path123" />
  <path
     d="M0 0 C3.96 0 7.92 0 12 0 C12 1.32 12 2.64 12 4 C8.04 4 4.08 4 0 4 C0 2.68 0 1.36 0 0 Z "
     fill="#A5A5A5"
     transform="translate(162,82)"
     id="path124" />
  <path
     d="M0 0 C3.96 0 7.92 0 12 0 C12 1.32 12 2.64 12 4 C8.04 4 4.08 4 0 4 C0 2.68 0 1.36 0 0 Z "
     fill="#A5A5A5"
     transform="translate(146,82)"
     id="path125" />
  <path
     d="M0 0 C3.96 0 7.92 0 12 0 C12 1.32 12 2.64 12 4 C8.04 4 4.08 4 0 4 C0 2.68 0 1.36 0 0 Z "
     fill="#A5A5A5"
     transform="translate(130,82)"
     id="path126" />
  <path
     d="M0 0 C3.96 0 7.92 0 12 0 C12 1.32 12 2.64 12 4 C8.04 4 4.08 4 0 4 C0 2.68 0 1.36 0 0 Z "
     fill="#A5A5A5"
     transform="translate(114,82)"
     id="path127" />
  <path
     d="M0 0 C3.96 0 7.92 0 12 0 C12 1.32 12 2.64 12 4 C8.04 4 4.08 4 0 4 C0 2.68 0 1.36 0 0 Z "
     fill="#A5A5A5"
     transform="translate(98,82)"
     id="path128" />
  <path
     d="M0 0 C3.96 0 7.92 0 12 0 C12 1.32 12 2.64 12 4 C8.04 4 4.08 4 0 4 C0 2.68 0 1.36 0 0 Z "
     fill="#A5A5A5"
     transform="translate(82,82)"
     id="path129" />
  <path
     d="M0 0 C3.96 0 7.92 0 12 0 C12 1.32 12 2.64 12 4 C8.04 4 4.08 4 0 4 C0 2.68 0 1.36 0 0 Z "
     fill="#A5A5A5"
     transform="translate(66,82)"
     id="path130" />
  <path
     d="M0 0 C3.96 0 7.92 0 12 0 C12 1.32 12 2.64 12 4 C8.04 4 4.08 4 0 4 C0 2.68 0 1.36 0 0 Z "
     fill="#A5A5A5"
     transform="translate(50,82)"
     id="path131" />
  <path
     d="M0 0 C3.63 0.33 7.26 0.66 11 1 C11 2.32 11 3.64 11 5 C7.37 5 3.74 5 0 5 C0 3.35 0 1.7 0 0 Z "
     fill="#A9A6A0"
     transform="translate(419,164)"
     id="path132" />
  <path
     d="M0 0 C3.0625 0.1875 3.0625 0.1875 5.0625 2.1875 C5.0625 3.1775 5.0625 4.1675 5.0625 5.1875 C1.7625 5.1875 -1.5375 5.1875 -4.9375 5.1875 C-3.69966216 0.23614865 -3.69966216 0.23614865 0 0 Z "
     fill="#342F2F"
     transform="translate(286.9375,454.8125)"
     id="path133" />
  <path
     d="M0 0 C3.3 0 6.6 0 10 0 C10.33 1.32 10.66 2.64 11 4 C7.37 4 3.74 4 0 4 C0 2.68 0 1.36 0 0 Z "
     fill="#A6A6A5"
     transform="translate(210,413)"
     id="path134" />
  <path
     d="M0 0 C3.3 0 6.6 0 10 0 C10 1.32 10 2.64 10 4 C6.7 4 3.4 4 0 4 C0 2.68 0 1.36 0 0 Z "
     fill="#A5A5A5"
     transform="translate(420,82)"
     id="path135" />
  <path
     d="M0 0 C2.64 0 5.28 0 8 0 C8 1.32 8 2.64 8 4 C5.36 4 2.72 4 0 4 C0 2.68 0 1.36 0 0 Z "
     fill="#AFAFAF"
     transform="translate(230,331)"
     id="path136" />
  <path
     d="M0 0 C2.64 0 5.28 0 8 0 C8 1.32 8 2.64 8 4 C5.36 4 2.72 4 0 4 C0 2.68 0 1.36 0 0 Z "
     fill="#A5A5A5"
     transform="translate(402,82)"
     id="path137" />
  <path
     d="M0 0 C0.99 0.33 1.98 0.66 3 1 C3 3.31 3 5.62 3 8 C1.68 8 0.36 8 -1 8 C-1.04241723 5.66705225 -1.04092937 3.33297433 -1 1 C-0.67 0.67 -0.34 0.34 0 0 Z "
     fill="#A09F9F"
     transform="translate(23,410)"
     id="path138" />
  <path
     d="M0 0 C1.65 0 3.3 0 5 0 C5 1.32 5 2.64 5 4 C3.35 3.67 1.7 3.34 0 3 C0 2.01 0 1.02 0 0 Z "
     fill="#F1F1F1"
     transform="translate(239,444)"
     id="path139" />
</svg>
